<?xml version="1.0" encoding="utf-8"?>
<svg version="1.1" id="Layer_1" xmlns="http://www.w3.org/2000/svg" xmlns:xlink="http://www.w3.org/1999/xlink" x="0px" y="0px"
	 viewBox="0 0 300 79" style="enable-background:new 0 0 300 79;" xml:space="preserve">
<style type="text/css">
	.st0{fill-rule:evenodd;clip-rule:evenodd;fill:#FFFFFF;}
</style>
<g transform="translate(4.33213 .541516)">
	<path class="st0" d="M67.5,31.3c-4,0-7.2,3.2-7.2,7.2s3.2,7.2,7.2,7.2c4,0,7.2-3.2,7.2-7.2S71.5,31.3,67.5,31.3"/>
	<path class="st0" d="M51.3,32.1c-3.5,0-6.4,2.9-6.4,6.4s2.9,6.4,6.4,6.4c3.5,0,6.4-2.9,6.4-6.4C57.7,35,54.8,32.1,51.3,32.1"/>
	<path class="st0" d="M51.3,15.8c-3.5,0-6.4,2.9-6.4,6.4s2.9,6.4,6.4,6.4c3.5,0,6.4-2.9,6.4-6.4S54.8,15.8,51.3,15.8"/>
	<path class="st0" d="M51.3,48.4c-3.5,0-6.4,2.9-6.4,6.4c0,3.5,2.9,6.4,6.4,6.4c3.5,0,6.4-2.9,6.4-6.4S54.8,48.4,51.3,48.4"/>
	<path class="st0" d="M35.1,32.9c-3.1,0-5.6,2.5-5.6,5.6s2.5,5.6,5.6,5.6s5.6-2.5,5.6-5.6S38.2,32.9,35.1,32.9"/>
	<path class="st0" d="M35.1,16.6c-3.1,0-5.6,2.5-5.6,5.6s2.5,5.6,5.6,5.6s5.6-2.5,5.6-5.6S38.2,16.6,35.1,16.6"/>
	<path class="st0" d="M35.1,49.2c-3.1,0-5.6,2.5-5.6,5.6c0,3.1,2.5,5.6,5.6,5.6s5.6-2.5,5.6-5.6C40.7,51.8,38.2,49.2,35.1,49.2"/>
	<path class="st0" d="M35.1,65.5c-3.1,0-5.6,2.5-5.6,5.6c0,3.1,2.5,5.6,5.6,5.6s5.6-2.5,5.6-5.6C40.7,68.1,38.2,65.5,35.1,65.5"/>
	<path class="st0" d="M35.1,0.3c-3.1,0-5.6,2.5-5.6,5.6s2.5,5.6,5.6,5.6s5.6-2.5,5.6-5.6S38.2,0.3,35.1,0.3"/>
	<path class="st0" d="M18.8,33.7c-2.7,0-4.8,2.2-4.8,4.8s2.2,4.8,4.8,4.8s4.8-2.2,4.8-4.8S21.5,33.7,18.8,33.7"/>
	<path class="st0" d="M18.8,50c-2.7,0-4.8,2.2-4.8,4.8s2.2,4.8,4.8,4.8s4.8-2.2,4.8-4.8S21.5,50,18.8,50"/>
	<path class="st0" d="M18.8,17.5c-2.7,0-4.8,2.2-4.8,4.8c0,2.7,2.2,4.8,4.8,4.8s4.8-2.2,4.8-4.8C23.7,19.7,21.5,17.5,18.8,17.5"/>
	<path class="st0" d="M4,34.5c-2.2,0-4,1.8-4,4c0,2.2,1.8,4,4,4c2.2,0,4-1.8,4-4C8,36.3,6.2,34.5,4,34.5"/>
	<path class="st0" d="M136.7,11.1c-2.7,0-4.8,2.2-4.8,4.8s2.2,4.8,4.8,4.8c2.7,0,4.8-2.2,4.8-4.8S139.3,11.1,136.7,11.1"/>
	<path class="st0" d="M238.9,11.1c-2.7,0-4.8,2.2-4.8,4.8s2.2,4.8,4.8,4.8s4.8-2.2,4.8-4.8S241.6,11.1,238.9,11.1"/>
	<path class="st0" d="M132.8,71.2h7.7V28.1h-7.7V71.2z"/>
	<path class="st0" d="M235.1,71.2h7.7V28.1h-7.7V71.2z"/>
	<path class="st0" d="M277,35.8v-7.7h-11.3V11.4H258v16.7h-6.2v7.7h6.2v23.1c0,6.8,5.5,12.4,12.4,12.4h6.7v-7.7H271
		c-3.1,0-5.3-2.2-5.3-5.4V35.8H277z"/>
	<path class="st0" d="M175.5,35.8v-7.7h-11.3V11.4h-7.7v16.7h-6.2v7.7h6.2v23.1c0,6.8,5.5,12.4,12.4,12.4h6.7v-7.7h-6.1
		c-3.1,0-5.3-2.2-5.3-5.4V35.8H175.5z"/>
	<path class="st0" d="M103.1,19.2v8.9h-6.2v7.7h6.2v35.4h7.7V35.8h12.4v-7.7h-12.4v-8.9c0-3.2,2.3-5.7,5.3-5.7h7.1V5.8h-6.7
		C109.1,5.8,103.1,11.8,103.1,19.2"/>
	<path class="st0" d="M206.3,64.1c-7.7,0-14-6.5-14-14.4c0-8,6.3-14.4,14-14.4s14,6.5,14,14.4C220.3,57.6,214,64.1,206.3,64.1z
		 M207.1,27.4c-7,0-11.8,3.2-14.8,6.9V5.9h-7.9v65.3h7.9v-6.1c2.9,3.7,7.8,6.9,14.8,6.9c12.2,0,21.1-9.6,21.1-22.3c0,0,0,0,0,0
		C228.2,36.9,219.2,27.4,207.1,27.4z"/>
	<path class="st0" d="M286.8,67.4h1c0.5,0,0.8-0.2,0.8-0.7s-0.3-0.7-0.8-0.7h-1V67.4z M289,69.8l-1.2-1.9h-1v1.9h-0.5v-4.3h1.5
		c0.8,0,1.4,0.5,1.4,1.2c0,0.5-0.3,0.9-0.8,1.1l1.3,2H289z M291.1,67.7c0-1.9-1.4-3.3-3.3-3.3c-1.9,0-3.3,1.4-3.3,3.3
		c0,1.9,1.4,3.3,3.3,3.3C289.6,71.1,291.1,69.6,291.1,67.7z M283.9,67.7c0-2.2,1.6-3.8,3.8-3.8s3.8,1.6,3.8,3.8
		c0,2.2-1.6,3.8-3.8,3.8S283.9,69.9,283.9,67.7z"/>
</g>
</svg>
